<svg width="50" height="50" viewBox="0 0 50 50" fill="none" xmlns="http://www.w3.org/2000/svg">
<rect width="50" height="50" fill="white"/>
<path d="M17.2097 32.2186C16.0463 33.27 16.0023 35.0851 17.1137 36.1965C18.2252 37.3079 20.0442 37.2599 21.0956 36.0925L26.2609 30.3596L23.0386 26.9374L17.2097 32.2186ZM19.8723 35.0011C19.4325 35.4369 18.7169 35.4409 18.2771 35.0051C17.8334 34.5613 17.8373 33.8457 18.2771 33.406C18.7169 32.9662 19.4285 32.9662 19.8723 33.41C20.3081 33.8497 20.3081 34.5613 19.8723 35.0011Z" fill="#4F4F4F"/>
<path d="M30.8226 25.2943C30.9545 25.1503 31.1584 25.0944 31.3463 25.1463C35.8132 26.351 38.4246 22.5495 37.6508 19.383C37.5778 19.0844 37.1971 18.9877 36.9798 19.2051L34.4967 21.6882C34.2968 21.8881 33.9729 21.8881 33.769 21.6882L31.6382 19.5533C31.4383 19.3534 31.4383 19.0296 31.6382 18.8257L34.1774 16.2864C34.3906 16.0733 34.2977 15.7178 34.0125 15.6202C31.2099 14.661 26.8556 17.2443 28.132 21.9321C28.184 22.1239 28.132 22.3238 27.9841 22.4558C27.9425 22.4936 26.9978 23.3527 27.0566 23.2993L30.067 26.1338L30.8226 25.2943Z" fill="#4F4F4F"/>
<path d="M23.3184 20.8726L20.8597 23.3313C20.8397 23.3513 20.8198 23.3713 20.7958 23.3913L32.4096 35.7127C33.3069 36.6576 34.7888 36.6598 35.6879 35.7607C36.5954 34.8492 36.5754 33.366 35.6359 32.4824L23.3184 20.8726Z" fill="#4F4F4F"/>
<path d="M17.2116 25.8501L18.2272 24.8345C18.4655 24.5962 18.4655 24.2098 18.2272 23.9715L17.9454 23.6898C17.63 23.3743 17.5696 22.86 17.852 22.5148C18.1768 22.1178 18.7634 22.096 19.1169 22.4495L19.433 22.7656C19.6714 23.004 20.0577 23.004 20.2961 22.7656L23.3864 19.6753C23.7457 19.316 23.746 18.7339 23.3868 18.3746L22.5172 17.505C22.0392 17.027 22.034 16.4434 22.3923 16.0847C23.4387 15.0376 24.7282 14.1247 26.2131 13.3196C26.3639 13.2379 26.3112 13.0092 26.1397 13.0039C24.606 12.9567 23.1987 13.3365 21.8876 14.0415C20.4378 14.8211 19.6231 15.7651 16.3978 18.6184C16.1345 18.8513 16.1202 19.2598 16.3688 19.5084L16.5658 19.7055C16.8854 20.0251 16.9467 20.5462 16.6605 20.8961C16.3314 21.2984 15.7369 21.3205 15.3787 20.9622L15.1188 20.7024C14.8805 20.464 14.4941 20.464 14.2558 20.7024L13.1598 21.7983C12.9467 22.0114 12.9467 22.357 13.1598 22.5701L16.4399 25.8501C16.653 26.0632 16.9985 26.0632 17.2116 25.8501Z" fill="#4F4F4F"/>
</svg>
